<svg width="21.000000" height="22.000000" viewBox="0 0 21 22" fill="none" xmlns="http://www.w3.org/2000/svg" xmlns:xlink="http://www.w3.org/1999/xlink">
	<desc>
			Created with Pixso.
	</desc>
	<defs/>
	<path id="Vector" d="M6 17.5C2 17.5 0 16.5 0 11.5L0 6.5C0 2.5 2 0.5 6 0.5L14 0.5C18 0.5 20 2.5 20 6.5L20 11.5C20 15.5 18 17.5 14 17.5L13.5 17.5C13.19 17.5 12.88 17.65 12.7 17.9L11.2 19.9C10.54 20.78 9.45 20.78 8.79 19.9L7.29 17.9C7.13 17.68 6.76 17.5 6.5 17.5L6 17.5Z" stroke="#1E4C2F" stroke-opacity="1.000000" stroke-width="1.500000" stroke-linejoin="round"/>
</svg>
