<svg width="24.000000" height="24.000000" viewBox="0 0 24 24" fill="none" xmlns="http://www.w3.org/2000/svg" xmlns:xlink="http://www.w3.org/1999/xlink">
	<desc>
			Created with Pixso.
	</desc>
	<defs/>
	<rect id="Property 1=linear" width="24.000000" height="24.000000" transform="translate(0.000000 -0.500000)" fill="#FFFFFF" fill-opacity="0"/>
	<path id="Vector" d="M3 10.72L3 15.21C3 19.7 4.8 21.5 9.29 21.5L14.68 21.5C19.17 21.5 20.97 19.7 20.97 15.21L20.97 " stroke="#1E4C2F" stroke-opacity="1.000000" stroke-width="1.500000" stroke-linejoin="round" stroke-linecap="round"/>
	<path id="Vector" d="M15 8.17L14.34 1.5L9.67 1.5L9 8.17C8.82 10.01 10.17 11.5 12 11.5C13.83 11.5 15.18 10.01 15 8.17Z" stroke="#1E4C2F" stroke-opacity="1.000000" stroke-width="1.500000" stroke-linejoin="round"/>
	<path id="Vector" d="M21.6 7.84L21.33 5.09C20.96 2.5 19.96 1.5 17.34 1.5L14.29 1.5L15 8.51C15.16 10.16 16.66 11.5 18.3 11.5C20.33 11.5 21.8 9.85 21.6 7.84Z" stroke="#1E4C2F" stroke-opacity="1.000000" stroke-width="1.500000" stroke-linejoin="round"/>
	<path id="Vector" d="M8.94 8.51L9.16 6.29L9.64 1.5L6.59 1.5C3.97 1.5 2.97 2.5 2.61 5.09L2.34 7.84C2.14 9.85 3.62 11.5 5.64 11.5C7.29 11.5 8.78 10.16 8.94 8.51Z" stroke="#1E4C2F" stroke-opacity="1.000000" stroke-width="1.500000" stroke-linejoin="round"/>
	<path id="Vector" d="M9.5 19L9.5 21.5L14.5 21.5L14.5 19C14.5 17.33 13.66 16.5 12 16.5C10.33 16.5 9.5 17.33 9.5 19Z" stroke="#1B2124" stroke-opacity="1.000000" stroke-width="1.500000" stroke-linejoin="round"/>
	<g opacity="0.000000"/>
</svg>
