<svg width="24.000000" height="24.000000" viewBox="0 0 24 24" fill="none" xmlns="http://www.w3.org/2000/svg" xmlns:xlink="http://www.w3.org/1999/xlink">
	<desc>
			Created with Pixso.
	</desc>
	<defs/>
	<path id="Vector" d="M7.48 5.65L10.58 3.25C10.98 2.85 11.88 2.65 12.48 2.65L16.28 2.65C17.48 2.65 18.78 3.55 19.08 4.75L21.48 12.05C21.98 13.45 21.08 14.65 19.58 14.65L15.58 14.65C14.98 14.65 14.48 15.15 14.58 15.85L15.08 19.04C15.28 19.95 14.68 20.95 13.78 21.25C12.98 21.55 11.98 21.15 11.58 20.55L7.48 " stroke="#0B0F0E" stroke-opacity="1.000000" stroke-width="1.500000"/>
	<path id="Vector" d="M2.37 15.45C2.37 16.85 2.97 17.35 4.37 17.35L5.37 17.35C6.78 17.35 7.37 16.85 7.37 15.45L7.37 5.65C7.37 4.25 6.78 3.75 5.37 3.75L4.37 3.75C2.97 3.75 2.37 4.25 2.37 5.65L2.37 15.45Z" stroke="#0B0F0E" stroke-opacity="1.000000" stroke-width="1.500000" stroke-linejoin="round"/>
	<g opacity="0.000000">
		<path id="Vector" d="M24 24L0 24L0 0L24 0L24 24ZM1 1L1 23L23 23L23 1L1 1Z" fill="#0B0F0E" fill-opacity="1.000000" fill-rule="evenodd"/>
	</g>
</svg>
