<svg width="20.000000" height="20.000000" viewBox="0 0 20 20" fill="none" xmlns="http://www.w3.org/2000/svg" xmlns:xlink="http://www.w3.org/1999/xlink">
	<desc>
			Created with Pixso.
	</desc>
	<defs/>
	<path id="Vector" d="M6.99 15.4L6.99 6.94C6.99 6.6 7.09 6.28 7.27 6L9.54 2.62C9.9 2.08 10.79 1.7 11.55 1.98C12.37 2.25 12.91 3.17 12.74 3.99L12.3 6.71C12.27 6.96 12.34 7.19 12.48 7.36C12.62 7.52 12.83 7.62 13.05 7.62L16.48 7.62C17.14 7.62 17.7 7.89 18.04 8.35C18.35 8.8 18.41 9.39 18.2 9.98L16.15 16.22C15.89 17.25 14.77 18.1 13.65 18.1L10.4 18.1C9.84 18.1 9.06 17.9 8.7 17.54L7.64 16.72C7.23 16.41 6.99 15.92 6.99 15.4Z" fill="#1D9E34" fill-opacity="1.000000" fill-rule="nonzero"/>
	<path id="Vector" d="M4.34 5.31L3.48 5.31C2.19 5.31 1.66 5.81 1.66 7.04L1.66 15.43C1.66 16.66 2.19 17.16 3.48 17.16L4.34 17.16C5.63 17.16 6.15 16.66 6.15 15.43L6.15 7.04C6.15 5.81 5.63 5.31 4.34 5.31Z" fill="#1D9E34" fill-opacity="1.000000" fill-rule="nonzero"/>
	<g opacity="0.000000">
		<path id="Vector" d="M0 20L20 20L20 0L0 0L0 20ZM19 1L19 19L1 19L1 1L19 1Z" fill="#1D9E34" fill-opacity="1.000000" fill-rule="evenodd"/>
	</g>
</svg>
