<svg width="24.000000" height="24.000000" viewBox="0 0 24 24" fill="none" xmlns="http://www.w3.org/2000/svg" xmlns:xlink="http://www.w3.org/1999/xlink">
	<desc>
			Created with Pixso.
	</desc>
	<defs/>
	<path id="Vector" d="M6.98 17.35L10.08 19.75C10.48 20.15 11.38 20.35 11.98 20.35L15.78 20.35C16.98 20.35 18.28 19.45 18.58 18.25L20.98 10.95C21.48 9.55 20.58 8.35 19.08 8.35L15.08 8.35C14.48 8.35 13.98 7.85 14.08 7.15L14.58 3.95C14.78 3.05 14.18 2.05 13.28 1.75C12.48 1.45 11.48 1.85 11.08 2.45L6.98 " stroke="#0B0F0E" stroke-opacity="1.000000" stroke-width="1.500000"/>
	<path id="Vector" d="M1.87 7.55C1.87 6.15 2.47 5.65 3.87 5.65L4.87 5.65C6.28 5.65 6.87 6.15 6.87 7.55L6.87 17.35C6.87 18.75 6.28 19.25 4.87 19.25L3.87 19.25C2.47 19.25 1.87 18.75 1.87 17.35L1.87 7.55Z" stroke="#0B0F0E" stroke-opacity="1.000000" stroke-width="1.500000" stroke-linejoin="round"/>
	<g opacity="0.000000">
		<path id="Vector" d="M23.5 -1L-0.5 -1L-0.5 23L23.5 23L23.5 -1ZM0.5 22L0.5 0L22.5 0L22.5 22L0.5 22Z" fill="#0B0F0E" fill-opacity="1.000000" fill-rule="evenodd"/>
	</g>
</svg>
