<svg width="17.000000" height="17.000000" viewBox="0 0 17 17" fill="none" xmlns="http://www.w3.org/2000/svg" xmlns:xlink="http://www.w3.org/1999/xlink">
	<desc>
			Created with Pixso.
	</desc>
	<defs/>
	<path id="Vector" d="M9.44 0.92L10.9 3.85C11.1 4.26 11.64 4.65 12.09 4.73L14.75 5.17C16.44 5.45 16.85 6.69 15.62 7.9L13.55 9.97C13.2 10.32 13.01 11 13.12 11.48L13.71 14.04C14.18 16.06 13.1 16.85 11.31 15.79L8.82 14.31C8.37 14.05 7.63 14.05 7.17 14.31L4.68 15.79C2.89 16.85 1.81 16.05 2.28 14.04L2.87 11.48C2.98 11 2.79 10.32 2.44 9.97L0.37 7.9C-0.85 6.69 -0.46 5.45 1.25 5.17L3.9 4.73C4.35 4.65 4.88 4.26 5.08 3.85L6.54 0.92C7.35 -0.67 8.64 -0.67 9.44 0.92Z" fill="#FFA439" fill-opacity="1.000000" fill-rule="nonzero"/>
</svg>
