<svg width="24.000000" height="24.000000" viewBox="0 0 24 24" fill="none" xmlns="http://www.w3.org/2000/svg" xmlns:xlink="http://www.w3.org/1999/xlink">
	<desc>
			Created with Pixso.
	</desc>
	<defs/>
	<rect id="shopping-cart" width="24.000000" height="24.000000" transform="translate(-0.500000 -0.500000)" fill="#FFFFFF" fill-opacity="0"/>
	<path id="Vector" d="M1.5 1.5L3.24 1.5C4.32 1.5 5.16 2.43 5.08 3.5L4.25 13.46C4.11 15.09 5.4 16.49 7.04 16.49L17.69 16.49C19.12 16.49 20.38 15.31 20.5 13.88L21.04 6.38C21.16 4.71 19.9 3.37 18.23 3.37L5.32 3.37" stroke="#1E4C2F" stroke-opacity="1.000000" stroke-width="1.500000" stroke-linejoin="round" stroke-linecap="round"/>
	<path id="Vector" d="M15.75 21.5C15.05 21.5 14.5 20.94 14.5 20.25C14.5 19.55 15.05 19 15.75 19C16.44 19 17 19.55 17 20.25C17 20.94 16.44 21.5 15.75 21.5Z" stroke="#1E4C2F" stroke-opacity="1.000000" stroke-width="1.500000" stroke-linejoin="round"/>
	<path id="Vector" d="M7.75 21.5C7.05 21.5 6.5 20.94 6.5 20.25C6.5 19.55 7.05 19 7.75 19C8.44 19 9 19.55 9 20.25C9 20.94 8.44 21.5 7.75 21.5Z" stroke="#1E4C2F" stroke-opacity="1.000000" stroke-width="1.500000" stroke-linejoin="round"/>
	<path id="Vector" d="M8.5 7.5L20.5 7.5" stroke="#1E4C2F" stroke-opacity="1.000000" stroke-width="1.500000" stroke-linejoin="round" stroke-linecap="round"/>
	<g opacity="0.000000"/>
</svg>
