<svg width="13.334717" height="13.225464" viewBox="0 0 13.3347 13.2255" fill="none" xmlns="http://www.w3.org/2000/svg" xmlns:xlink="http://www.w3.org/1999/xlink">
	<desc>
			Created with Pixso.
	</desc>
	<defs/>
	<path id="Vector" d="M7.81934 0.954956L8.99268 3.30164C9.15259 3.6283 9.57935 3.94165 9.93921 4.00171L12.0659 4.35498C13.426 4.58167 13.7458 5.56836 12.7659 6.54163L11.1125 8.19495C10.8325 8.47498 10.6792 9.01501 10.7659 9.40161L11.2393 11.4484C11.6125 13.0684 10.7527 13.6949 9.31934 12.8484L7.32593 11.6683C6.96606 11.455 6.37256 11.455 6.00586 11.6683L4.0127 12.8484C2.58594 13.6949 1.71924 13.0616 2.09253 11.4484L2.56592 9.40161C2.65259 9.01501 2.49927 8.47498 2.21924 8.19495L0.565918 6.54163C-0.407471 5.56836 -0.0939941 4.58167 1.26587 4.35498L3.39258 4.00171C3.74585 3.94165 4.17261 3.6283 4.33252 3.30164L5.50586 0.954956C6.146 -0.318359 7.18604 -0.318359 7.81934 0.954956Z" fill="#FFA439" fill-opacity="1.000000" fill-rule="nonzero"/>
</svg>
