<svg width="24.000000" height="24.000000" viewBox="0 0 24 24" fill="none" xmlns="http://www.w3.org/2000/svg" xmlns:xlink="http://www.w3.org/1999/xlink">
	<desc>
			Created with Pixso.
	</desc>
	<defs/>
	<rect id="coin" width="24.000000" height="24.000000" fill="#FFFFFF" fill-opacity="0"/>
	<path id="Vector" d="M8 11.39C8 12.16 8.59 12.79 9.33 12.79L10.83 12.79C11.47 12.79 11.99 12.25 11.99 11.58C11.99 10.85 11.67 10.59 11.2 10.41L8.79 9.57C8.32 9.4 8 9.14 8 8.41C8 7.75 8.52 7.19 9.15 7.19L10.66 7.19C11.4 7.2 12 7.82 12 8.59" stroke="#0B0F0E" stroke-opacity="1.000000" stroke-width="1.500000" stroke-linejoin="round" stroke-linecap="round"/>
	<path id="Vector" d="M10 12.85L10 13.59" stroke="#0B0F0E" stroke-opacity="1.000000" stroke-width="1.500000" stroke-linejoin="round" stroke-linecap="round"/>
	<path id="Vector" d="M10 6.41L10 7.19" stroke="#0B0F0E" stroke-opacity="1.000000" stroke-width="1.500000" stroke-linejoin="round" stroke-linecap="round"/>
	<path id="Vector" d="M9.98 17.98C5.57 17.98 2 14.4 2 9.98C2 5.57 5.57 2 9.98 2C14.4 2 17.98 5.57 17.98 9.98C17.98 14.4 14.4 17.98 9.98 17.98Z" stroke="#0B0F0E" stroke-opacity="1.000000" stroke-width="1.500000" stroke-linejoin="round"/>
	<path id="Vector" d="M12.98 19.87C13.88 21.15 15.35 21.98 17.03 21.98C19.76 21.98 21.98 19.76 21.98 17.03C21.98 15.37 21.16 13.9 19.91 13" stroke="#0B0F0E" stroke-opacity="1.000000" stroke-width="1.500000" stroke-linejoin="round" stroke-linecap="round"/>
	<g opacity="0.000000"/>
</svg>
