<svg width="48.000000" height="48.000000" viewBox="0 0 48 48" fill="none" xmlns="http://www.w3.org/2000/svg" xmlns:xlink="http://www.w3.org/1999/xlink">
	<desc>
			Created with Pixso.
	</desc>
	<defs/>
	<rect id="shopping-cart" width="24.000000" height="24.000000" transform="translate(12.000000 12.000000)" fill="#FFFFFF" fill-opacity="0"/>
	<path id="Vector" d="M14 14L15.74 14C16.8201 14 17.6699 14.9299 17.5801 16L16.75 25.96C16.6101 27.5901 17.8999 28.99 19.54 28.99L30.1899 28.99C31.6299 28.99 32.8899 27.8101 33 26.3799L33.54 18.8799C33.6599 17.22 32.3999 15.8701 30.73 15.8701L17.8201 15.8701L14 14ZM14.02 14.73L14 14.75C13.5801 14.75 13.25 14.4199 13.25 14C13.25 13.5801 13.5801 13.25 14 13.25L14.02 13.27L14.02 14.73ZM17.8401 16.6001L17.8201 16.6201C17.3999 16.6201 17.0701 16.29 17.0701 15.8701C17.0701 15.45 17.3999 15.1201 17.8201 15.1201L17.8401 15.1399L17.8401 16.6001Z" fill="#818B9C" fill-opacity="1.000000" fill-rule="nonzero"/>
	<path id="Vector" d="M14 14L15.74 14C16.8201 14 17.6699 14.9299 17.5801 16L16.75 25.96C16.6101 27.5901 17.8999 28.99 19.54 28.99L30.1899 28.99C31.6299 28.99 32.8899 27.8101 33 26.3799L33.54 18.8799C33.6599 17.22 32.3999 15.8701 30.73 15.8701L17.8201 15.8701" stroke="#818B9C" stroke-opacity="1.000000" stroke-width="1.500000" stroke-linejoin="round" stroke-linecap="round"/>
	<path id="Vector" d="M28.25 34C27.5596 34 27 33.4404 27 32.75C27 32.0596 27.5596 31.5 28.25 31.5C28.9404 31.5 29.5 32.0596 29.5 32.75C29.5 33.4404 28.9404 34 28.25 34Z" stroke="#818B9C" stroke-opacity="1.000000" stroke-width="1.500000" stroke-linejoin="round"/>
	<path id="Vector" d="M20.25 34C19.5596 34 19 33.4404 19 32.75C19 32.0596 19.5596 31.5 20.25 31.5C20.9404 31.5 21.5 32.0596 21.5 32.75C21.5 33.4404 20.9404 34 20.25 34Z" stroke="#818B9C" stroke-opacity="1.000000" stroke-width="1.500000" stroke-linejoin="round"/>
	<path id="Vector" d="M21 20L33 20" stroke="#FFFFFF" stroke-opacity="1.000000" stroke-width="1.500000" stroke-linejoin="round" stroke-linecap="round"/>
	<g opacity="0.000000"/>
	<rect id="Frame 6" rx="12.000000" width="47.000000" height="47.000000" transform="translate(0.500000 0.500000)" stroke="#EFF5FB" stroke-opacity="0" stroke-width="1.000000"/>
</svg>
