<svg width="48.000000" height="48.000000" viewBox="0 0 48 48" fill="none" xmlns="http://www.w3.org/2000/svg" xmlns:xlink="http://www.w3.org/1999/xlink">
	<desc>
			Created with Pixso.
	</desc>
	<defs/>
	<rect id="user" width="24.000000" height="24.000000" transform="translate(12.000000 12.000000)" fill="#FFFFFF" fill-opacity="0"/>
	<g opacity="0.000000"/>
	<path id="Vector" d="M29 19C29 21.7615 26.7615 24 24 24C21.2385 24 19 21.7615 19 19C19 16.2385 21.2385 14 24 14C26.7615 14 29 16.2385 29 19Z" fill="#818B9C" fill-opacity="1.000000" fill-rule="evenodd"/>
	<path id="Vector" d="M24.0002 26.5C18.9902 26.5 14.9102 29.8601 14.9102 34C14.9102 34.28 15.1301 34.5 15.4102 34.5L32.5901 34.5C32.8701 34.5 33.0901 34.28 33.0901 34C33.0901 29.8601 29.0103 26.5 24.0002 26.5Z" fill="#818B9C" fill-opacity="1.000000" fill-rule="nonzero"/>
	<rect id="Frame 3" rx="12.000000" width="47.000000" height="47.000000" transform="translate(0.500000 0.500000)" stroke="#E4E9EE" stroke-opacity="1.000000" stroke-width="1.000000"/>
</svg>
