<svg width="24.000000" height="24.000000" viewBox="0 0 24 24" fill="none" xmlns="http://www.w3.org/2000/svg" xmlns:xlink="http://www.w3.org/1999/xlink">
	<desc>
			Created with Pixso.
	</desc>
	<defs/>
	<rect id="heart" width="24.000000" height="24.000000" fill="#FFFFFF" fill-opacity="0"/>
	<path id="Vector" d="M11.38 20.8C8.47 19.81 2 15.68 2 8.68C2 5.59 4.48 3.09 7.56 3.09C9.38 3.09 10.99 3.97 12 5.33C13.01 3.97 14.63 3.09 16.44 3.09C19.51 3.09 22 5.59 22 8.68C22 15.68 15.52 19.81 12.62 20.8C12.28 20.92 11.72 20.92 11.38 20.8Z" stroke="#0B0F0E" stroke-opacity="1.000000" stroke-width="1.500000" stroke-linejoin="round"/>
	<g opacity="0.000000">
		<path id="Vector" d="M24 0L0 0L0 24L24 24L24 0ZM1 23L1 1L23 1L23 23L1 23Z" fill="#0B0F0E" fill-opacity="1.000000" fill-rule="evenodd"/>
	</g>
</svg>
