<svg width="24.000000" height="24.000000" viewBox="0 0 24 24" fill="none" xmlns="http://www.w3.org/2000/svg" xmlns:xlink="http://www.w3.org/1999/xlink">
	<desc>
			Created with Pixso.
	</desc>
	<defs/>
	<path id="Vector" d="M12.02 2.9C8.71 2.9 6.02 5.59 6.02 8.9L6.02 11.79C6.02 12.4 5.76 13.33 5.45 13.85L4.3 15.77C3.59 16.95 4.08 18.26 5.38 18.7C9.69 20.13 14.34 20.13 18.65 18.7C19.86 18.29 20.39 16.86 19.73 15.77L18.58 13.85C18.28 13.33 18.02 12.4 18.02 11.79L18.02 8.9C18.02 5.6 15.32 2.9 12.02 2.9Z" fill="#818B9C" fill-opacity="1.000000" fill-rule="nonzero"/>
	<path id="Vector" d="M6.02 8.9L6.02 11.79C6.02 12.4 5.76 13.33 5.45 13.85L4.3 15.77C3.59 16.95 4.08 18.26 5.38 18.7C9.69 20.13 14.34 20.13 18.65 18.7C19.86 18.29 20.39 16.86 19.73 15.77L18.58 13.85C18.28 13.33 18.02 12.4 18.02 11.79L18.02 8.9C18.02 5.6 15.32 2.9 12.02 2.9C8.71 2.9 6.02 5.59 6.02 8.9Z" stroke="#818B9C" stroke-opacity="1.000000" stroke-width="1.500000" stroke-linejoin="round"/>
	<path id="Vector" d="M13.86 3.19C13.55 3.1 13.24 3.04 12.9 3C11.95 2.87 11.03 2.94 10.16 3.19C10.46 2.45 11.17 1.93 12.02 1.93C12.85 1.93 13.57 2.45 13.86 3.19Z" fill="#818B9C" fill-opacity="1.000000" fill-rule="nonzero"/>
	<path id="Vector" d="M12.9 3C11.95 2.87 11.03 2.94 10.16 3.19C10.46 2.45 11.17 1.93 12.02 1.93C12.85 1.93 13.57 2.45 13.86 3.19C13.55 3.1 13.24 3.04 12.9 3Z" stroke="#818B9C" stroke-opacity="1.000000" stroke-width="1.500000" stroke-linejoin="round"/>
	<path id="Vector" d="M15.02 19.06C15.02 20.71 13.66 22.06 12.02 22.06C11.2 22.06 10.43 21.72 9.89 21.18C9.36 20.64 9.02 19.88 9.02 19.06" stroke="#818B9C" stroke-opacity="1.000000" stroke-width="1.500000"/>
	<g opacity="0.000000">
		<path id="Vector" d="M24 0L0 0L0 24L24 24L24 0ZM1 23L1 1L23 1L23 23L1 23Z" fill="#818B9C" fill-opacity="1.000000" fill-rule="evenodd"/>
	</g>
</svg>
