<svg width="24.000000" height="24.000000" viewBox="0 0 24 24" fill="none" xmlns="http://www.w3.org/2000/svg" xmlns:xlink="http://www.w3.org/1999/xlink">
	<desc>
			Created with Pixso.
	</desc>
	<defs/>
	<path id="Vector" d="M17 20.5L7 20.5C4 20.5 2 19 2 15.5L2 8.5C2 5 4 3.5 7 3.5L17 3.5C20 3.5 22 5 22 8.5L22 15.5C22 19 20 20.5 17 20.5Z" fill="#818B9C" fill-opacity="1.000000" fill-rule="nonzero"/>
	<path id="Vector" d="M7 20.5C4 20.5 2 19 2 15.5L2 8.5C2 5 4 3.5 7 3.5L17 3.5C20 3.5 22 5 22 8.5L22 15.5C22 19 20 20.5 17 20.5L7 20.5Z" stroke="#818B9C" stroke-opacity="1.000000" stroke-width="1.500000" stroke-linejoin="round"/>
	<path id="Vector" d="M17 9L13.87 11.5C12.84 12.32 11.14 12.32 10.12 11.5L7 9" stroke="#FFFFFF" stroke-opacity="1.000000" stroke-width="1.500000" stroke-linejoin="round" stroke-linecap="round"/>
	<g opacity="0.000000">
		<path id="Vector" d="M24 0L0 0L0 24L24 24L24 0ZM1 23L1 1L23 1L23 23L1 23Z" fill="#818B9C" fill-opacity="1.000000" fill-rule="evenodd"/>
	</g>
</svg>
