<svg width="24.000000" height="24.000000" viewBox="0 0 24 24" fill="none" xmlns="http://www.w3.org/2000/svg" xmlns:xlink="http://www.w3.org/1999/xlink">
	<desc>
			Created with Pixso.
	</desc>
	<defs/>
	<path d="M19.29 13.07C19.29 16.15 17.54 17.46 14.9 17.46L6.1 17.46C5.65 17.46 5.22 17.43 4.82 17.34C4.57 17.29 4.33 17.23 4.12 17.15C2.62 16.59 1.7 15.29 1.7 13.07L1.7 7.91C1.7 4.83 3.46 3.52 6.1 3.52L14.9 3.52C17.14 3.52 18.74 4.46 19.17 6.64C19.24 7.04 19.29 7.44 19.29 7.91L19.29 13.07Z" stroke="#0B0F0E" stroke-opacity="1.000000" stroke-width="1.500000" stroke-linejoin="round"/>
	<path d="M22.3 16.07C22.3 19.15 20.54 20.47 17.9 20.47L9.11 20.47C8.37 20.47 7.7 20.37 7.12 20.15C5.93 19.71 5.12 18.8 4.83 17.34C5.23 17.43 5.66 17.47 6.11 17.47L14.9 17.47C17.54 17.47 19.3 16.15 19.3 13.07L19.3 7.92C19.3 7.45 19.26 7.03 19.18 6.64C21.08 7.04 22.3 8.38 22.3 10.92L22.3 16.07Z" stroke="#0B0F0E" stroke-opacity="1.000000" stroke-width="1.500000" stroke-linejoin="round"/>
	<path d="M10.49 13.13C9.04 13.13 7.85 11.95 7.85 10.49C7.85 9.04 9.04 7.85 10.49 7.85C11.95 7.85 13.13 9.04 13.13 10.49C13.13 11.95 11.95 13.13 10.49 13.13Z" stroke="#0B0F0E" stroke-opacity="1.000000" stroke-width="1.500000" stroke-linejoin="round"/>
	<path d="M4.78 8.3L4.78 12.7" stroke="#0B0F0E" stroke-opacity="1.000000" stroke-width="1.500000" stroke-linejoin="round" stroke-linecap="round"/>
	<path d="M16.22 8.3L16.22 12.7" stroke="#0B0F0E" stroke-opacity="1.000000" stroke-width="1.500000" stroke-linejoin="round" stroke-linecap="round"/>
	<g opacity="0.000000"/>
</svg>
