<svg width="83.000000" height="83.000000" viewBox="0 0 83 83" fill="none" xmlns="http://www.w3.org/2000/svg" xmlns:xlink="http://www.w3.org/1999/xlink">
	<desc>
			Created with Pixso.
	</desc>
	<defs/>
	<path id="Ellipse 13" d="M83 41C83 52.58 78.29 63.08 70.69 70.69C62.5 78.89 51.75 82.98 41 82.98C29.41 83 18.91 78.29 11.3 70.69C3.1 62.5 -0.99 51.75 -0.99 41C-1 29.41 3.7 18.91 11.3 11.3C19.49 3.1 30.24 -0.99 41 -0.99C52.58 -1 63.08 3.7 70.69 11.3L67.72 14.27C60.35 6.89 50.67 3.21 41 3.21C30.57 3.2 21.12 7.43 14.27 14.27C6.89 21.64 3.2 31.32 3.2 41C3.2 51.42 7.43 60.87 14.27 67.72C21.64 75.1 31.32 78.79 41 78.79C51.42 78.8 60.87 74.56 67.72 67.72C75.1 60.35 78.79 50.67 78.79 41L83 41Z" fill="#FFA439" fill-opacity="1.000000" fill-rule="evenodd"/>
</svg>
