<svg width="104.000000" height="32.000000" viewBox="0 0 104 32" fill="none" xmlns="http://www.w3.org/2000/svg" xmlns:xlink="http://www.w3.org/1999/xlink">
	<desc>
			Created with Pixso.
	</desc>
	<defs>
		<clipPath id="clip18_26302">
			<rect id="Frame 162649" rx="10.000000" width="32.000000" height="32.000000" fill="white" fill-opacity="0"/>
		</clipPath>
	</defs>
	<g clip-path="url(#clip18_26302)">
		<rect id="Rectangle 588" width="32.000000" height="32.000000" fill="#1E4C2F" fill-opacity="1.000000"/>
		<path id="Rectangle 591" d="M13.9276 10L22.0724 10C23.562 10 24.826 11.093 25.041 12.5671L26.4994 22.5671C26.7633 24.3772 25.36 26 23.5308 26L12.4692 26C10.64 26 9.23669 24.3772 9.50061 22.5671L10.959 12.5671C11.174 11.093 12.438 10 13.9276 10Z" fill="#143C23" fill-opacity="1.000000" fill-rule="nonzero"/>
		<path id="Rectangle 590" d="M11.9276 8L20.0724 8C21.562 8 22.826 9.09302 23.041 10.5671L24.4994 20.5671C24.7633 22.3772 23.36 24 21.5308 24L10.4692 24C8.64001 24 7.23669 22.3772 7.50061 20.5671L8.95898 10.5671C9.17395 9.09302 10.438 8 11.9276 8Z" fill="#FFFFFF" fill-opacity="1.000000" fill-rule="nonzero"/>
		<path id="Ellipse 9" d="M19.3257 14C19.7288 14 20.0623 14.3293 19.9901 14.7261C19.9387 15.0085 19.8573 15.2854 19.7469 15.552C19.5431 16.0442 19.2444 16.4912 18.8678 16.8677C18.4912 17.2444 18.0441 17.5432 17.552 17.7468C17.0599 17.9507 16.5326 18.0557 16 18.0557C15.4674 18.0557 14.9401 17.9507 14.448 17.7468C13.9559 17.5432 13.5088 17.2444 13.1322 16.8677C12.7556 16.4912 12.4569 16.0442 12.2531 15.552C12.1427 15.2854 12.0613 15.0085 12.0099 14.7261C11.9377 14.3293 12.2712 14 12.6743 14C13.0775 14 13.3944 14.333 13.5063 14.7205C13.5331 14.813 13.5649 14.9041 13.6019 14.9934C13.7324 15.3081 13.9236 15.5942 14.1647 15.8354C14.4056 16.0764 14.6918 16.2676 15.0067 16.3979C15.3217 16.5286 15.6592 16.5957 16 16.5957C16.3408 16.5957 16.6783 16.5286 16.9933 16.3979C17.3082 16.2676 17.5944 16.0764 17.8353 15.8354C18.0764 15.5942 18.2676 15.3081 18.3981 14.9934C18.4351 14.9041 18.4669 14.813 18.4937 14.7205C18.6056 14.333 18.9225 14 19.3257 14Z" fill="#1E4C2F" fill-opacity="1.000000" fill-rule="nonzero"/>
	</g>
	<path id="lenny." d="M41.8398 7.54492L43.8496 7.54492L43.8496 25L41.8398 25L41.8398 7.54492ZM58.0381 21.9648C57.4229 23.9453 55.4834 25.2754 52.8233 25.2754C49.0381 25.2754 46.7178 22.5801 46.7178 18.5547C46.7178 14.5352 49.0733 11.7402 52.6182 11.7402C55.3428 11.7402 58.2432 13.4102 58.2432 18.2852L58.2432 19.1348L48.7393 19.1348C48.833 21.9414 50.4619 23.4648 52.8233 23.4648C54.3994 23.4648 55.583 22.7852 56.0928 21.4199L58.0381 21.9648ZM66.4658 13.5449C64.538 13.5449 63.1201 14.8398 63.1201 17.125L63.1201 25L61.1103 25L61.1103 11.9102L63.0556 11.9102L63.0556 13.9551L63.2255 13.9551C63.8408 12.625 65.0654 11.7402 67.0458 11.7402C69.6943 11.7402 71.4755 13.3398 71.4755 16.6797L71.4755 25L69.4658 25L69.4658 16.8203C69.4658 14.7637 68.329 13.5449 66.4658 13.5449ZM80.3112 13.5449C78.3835 13.5449 76.9655 14.8398 76.9655 17.125L76.9655 25L74.9557 25L74.9557 11.9102L76.9011 11.9102L76.9011 13.9551L77.071 13.9551C77.6862 12.625 78.9108 11.7402 80.8913 11.7402C83.5397 11.7402 85.321 13.3398 85.321 16.6797L85.321 25L83.3112 25L83.3112 16.8203C83.3112 14.7637 82.1745 13.5449 80.3112 13.5449ZM93.4743 26.9102C92.7126 28.9434 91.4353 29.9102 89.6189 29.9102C88.9392 29.9102 88.3591 29.7754 88.154 29.6699L88.6638 27.9004C90.1345 28.2754 91.0368 28.0879 91.7692 26.0898L92.1442 25.0703L87.3044 11.9102L89.4841 11.9102L93.0993 22.3398L93.2341 22.3398L96.8493 11.9102L99.029 11.9102L93.4743 26.9102ZM52.6182 13.5449C50.3154 13.5449 48.874 15.3613 48.7393 17.4004L56.1983 17.4004C56.1983 15.1797 54.7979 13.5449 52.6182 13.5449ZM103.669 23.5996C103.669 24.4434 102.978 25.1348 102.134 25.1348C101.29 25.1348 100.605 24.4434 100.605 23.5996C100.605 22.7559 101.29 22.0703 102.134 22.0703C102.978 22.0703 103.669 22.7559 103.669 23.5996Z" fill="#0B0F0E" fill-opacity="1.000000" fill-rule="evenodd"/>
</svg>
